<?xml version="1.0" encoding="UTF-8"?>
<svg width="512px" height="442px" viewBox="0 0 512 442" version="1.1" xmlns="http://www.w3.org/2000/svg" xmlns:xlink="http://www.w3.org/1999/xlink">
    <!-- Generator: Sketch 52.6 (67491) - http://www.bohemiancoding.com/sketch -->
    <title>danger</title>
    <desc>Created with Sketch.</desc>
    <g id="Page-1" stroke="none" stroke-width="1" fill="none" fill-rule="evenodd">
        <g id="danger" fill="#FFFFFF">
            <path d="M505.403,371.394 L295.389,23.102 C287.115,9.381 272.022,0.857 255.999,0.857 C239.976,0.857 224.883,9.381 216.608,23.103 L6.595,371.394 C-1.956,385.576 -2.209,403.344 5.934,417.764 C14.079,432.184 29.425,441.142 45.985,441.142 L466.013,441.142 C482.573,441.142 497.92,432.184 506.065,417.763 C514.208,403.342 513.955,385.574 505.403,371.394 Z M477.039,401.372 C474.797,405.341 470.572,407.808 466.013,407.808 L45.985,407.808 C41.426,407.808 37.201,405.342 34.96,401.373 C32.718,397.403 32.788,392.511 35.141,388.608 L245.156,40.316 C247.434,36.539 251.589,34.192 256,34.192 C260.41,34.192 264.565,36.539 266.843,40.316 L476.856,388.608 C479.211,392.512 479.281,397.403 477.039,401.372 Z" id="Shape" fill-rule="nonzero"></path>
            <path d="M256.154,138.005 C243.474,138.005 233.578,144.809 233.578,156.871 C233.578,193.673 237.907,246.557 237.907,283.36 C237.908,292.947 246.259,296.967 256.155,296.967 C263.577,296.967 274.092,292.947 274.092,283.36 C274.092,246.558 278.421,193.674 278.421,156.871 C278.421,144.81 268.216,138.005 256.154,138.005 Z" id="Path"></path>
            <path d="M256.465,318.306 C242.858,318.306 232.651,329.13 232.651,342.12 C232.651,354.8 242.857,365.934 256.465,365.934 C269.145,365.934 279.97,354.8 279.97,342.12 C279.97,329.13 269.144,318.306 256.465,318.306 Z" id="Path"></path>
        </g>
    </g>
</svg>