<?xml version="1.0" encoding="UTF-8"?>
<svg width="422px" height="196px" viewBox="0 0 422 196" version="1.1" xmlns="http://www.w3.org/2000/svg" xmlns:xlink="http://www.w3.org/1999/xlink">
    <!-- Generator: Sketch 52.6 (67491) - http://www.bohemiancoding.com/sketch -->
    <title>Wijkoverzicht</title>
    <desc>Created with Sketch.</desc>
    <defs>
        <rect id="path-1" x="0" y="0" width="422" height="196" rx="10"></rect>
    </defs>
    <g id="Panel" stroke="none" stroke-width="1" fill="none" fill-rule="evenodd">
        <g id="Desktop-HD-Copy-2" transform="translate(-922.000000, -169.000000)">
            <g id="Wijkoverzicht" transform="translate(922.000000, 169.000000)">
                <g id="Overzicht-Rotterdam">
                    <mask id="mask-2" fill="white">
                        <use xlink:href="#path-1"></use>
                    </mask>
                    <use id="Mask" fill="#FFFFFF" xlink:href="#path-1"></use>
                    <path d="M302.207783,181.874057 C302.138424,181.983082 302.069163,182.093029 302,182.203899 L302,182.469355 L307.132555,185.791543 C310.312901,189.973514 311.900597,193.364928 311.895642,195.965785 L240,195.965785 L240,195.133161 L240.422081,194.373935 L243,193.119138 L244.997148,193.119138 L244,180.864515 L242.243807,178.496098 L253.693776,151.108815 L251.170143,148.544544 L251.170143,145.678579 L257.506746,145.678579 L265.71344,153.390424 L286.54936,147.495688 L287.826352,145.205334 L286.763398,143 L289.793643,143 L291.045193,146.289426 L289.280038,150.099567 L288.639399,161.264303 L287.324557,161.969028 L287.324557,169.260858 C289.578672,169.117464 294.539747,173.321864 302.207783,181.874057 Z M313.822742,196 L316,196 L316,203 L277.557633,203 L313.822742,196 Z" id="Combined-Shape" fill-opacity="0.3" fill="#FBBA00" mask="url(#mask-2)"></path>
                    <path d="M255.433335,132.579816 L253.460493,133.539109 L255.48629,140.686156 L252.700383,140.686156 L252,134.883819 L250.502131,134.883819 L250.502131,140.686156 L243,140.686156 L247.062642,138.57304 L247.062642,136.04516 L239.759731,139.169864 L233,139.169864 L227.525052,136.668616 L224.245793,136.04516 L221.397506,134.883819 L222.674054,133.539109 L224.245793,133.539109 L226.031463,131.419881 L224.990657,130.489935 L219,134.289178 L216.095889,134.289178 L219,131.419881 L219,130.489935 L212.609585,134.289178 L211,133.539109 L218,129.079736 L216.636869,127.883905 L207,133.539109 L207,136.04516 L202.891323,136.04516 L202.111778,133.539109 L209.279368,121.24811 L208,119.41747 L202.891323,127.883905 L200.918552,125.701807 L204,120.213381 L202.891323,119.41747 L200.156709,123.216713 L198.849109,122 L200.918552,119.41747 L198.598048,118.497227 C201.664259,112.713545 203.46491,107.629844 204,103.246124 L229.757526,100.316272 L245.887265,99.2554245 L245.887265,99.0045091 L250.336225,99.0045091 L252,98.4046286 L254.51681,99.9916485 L255.199448,119.623106 L248.760557,123.408814 L248.760557,125.676921 L254.51681,125.676921 L255.199448,129.230798 L254.51681,130.42401 L255.433335,132.579816 Z" id="Combined-Shape" fill="#FBBA00" opacity="0.3" mask="url(#mask-2)"></path>
                    <path d="M170.138895,179 L166.714122,179 L159.197469,152.706739 L164.209757,153.572433 L166.593869,149.408876 L181.869773,155.17095 L181.869773,157.465225 L179.224948,160.86706 L179.636121,164.262927 L181.451689,165.472573 L180.361092,166.974343 C181.400803,170.576791 180.238693,171.77136 176.874761,170.558049 C175.827812,170.180433 175.013884,170.552396 174.432976,171.673936 C173.209423,172.381633 171.778063,174.823655 170.138895,179 Z" id="Combined-Shape" fill-opacity="0.3" fill="#FBBA00" mask="url(#mask-2)"></path>
                    <path d="M371.555837,141.350617 C372.651505,142.887045 374.356748,143.581146 376.671564,143.43292 L377.465766,140.558396 L379.781813,142.076101 L372.434245,181.649695 L363.202672,181.649695 C352.113495,187.421463 344.818021,192.204898 341.31625,196 L311.895484,196 C311.914509,193.394695 310.326866,189.991876 307.132555,185.791543 L302,182.469355 L302,182.203899 C307.404002,173.541255 313.404002,170.50821 320,173.104763 L320.839245,166.028396 L324.415943,166.028396 L315.342243,145.125357 C320.666159,146.204317 330.139637,144.168759 343.762675,139.018686 C344.28387,138.821653 344.784824,138.622789 345.265537,138.422096 L348.601921,138.422096 L351.046806,137.441763 L354.350969,137.441763 L354.350969,140.476527 L356.69964,140.476527 L356.69964,137.441763 L363.851313,140.476527 C367.501846,140.548845 370.070021,140.840209 371.555837,141.350617 Z" id="Combined-Shape" fill="#F6C340" opacity="0.297059" mask="url(#mask-2)"></path>
                    <path d="M287.660837,143 L285.733239,141.43743 L266.710215,147 L262.307695,143.793252 L270.532706,138.649265 L285,138.649265 L277.3479,133.523743 L285,127.500208 L290.826279,131.176478 L292.228693,129.534924 L286.662721,126.191018 L288.639399,124.171614 L297.433478,131.176478 L299.09755,129.534924 L290.826279,123 L296.777757,115.780547 L299.09755,114.998726 L300,115.780547 L300,120.380051 L301,121.496038 L302.192408,115.780547 L306.014377,119.178497 L306.014377,122 L308.233556,124.171614 L308.233556,130.346919 L304,126.191018 L302.841824,127.500208 L308.233556,133.523743 L308.233556,139.317146 L316.158969,147.006845 L324.415943,166.028396 L320.839245,166.028396 L320,173.104763 C313.488422,170.541442 307.557683,173.46454 302.207784,181.874056 C294.539747,173.321864 289.578672,169.117464 287.324557,169.260858 L287.324557,161.969028 L288.639399,161.264303 L289.280038,150.099567 L291.045193,146.289426 L289.793643,143 L287.660837,143 Z" id="Combined-Shape" fill="#FBBA00" mask="url(#mask-2)"></path>
                    <path d="M281.959116,62.9371706 C282.828574,64.3173531 282.608073,66.8940976 281.297613,70.6674041 C280.363997,73.355637 281.842539,75.8026062 285.733239,78.0083117 C285.61404,78.0983833 285.49739,78.1894949 285.383289,78.2816467 C281.881349,81.1099218 280.337104,86.800616 280.750553,95.3537293 C278.997535,94.6948398 276.982433,94.365395 274.705248,94.365395 C267.255802,94.365395 260.1736,95.1327566 253.458643,96.6674798 L245.887265,96.6674798 L245.887265,99.2554245 L225.210433,100.615333 L221.397506,92.3907569 L242.109973,73.4030563 C246.177184,68.3778959 259.26627,64.9063486 281.377231,62.9884144 C281.572301,62.9714938 281.766262,62.9544125 281.959116,62.9371706 Z" id="Noord-Copy" fill="#FBBA00" opacity="0.3" mask="url(#mask-2)"></path>
                    <path d="M342.456412,132.759147 C338.054399,132.623713 334.052488,134.239632 330.450679,137.606904 C324.662812,143.017886 320.328167,142.592952 317.446744,136.332102 C318.26766,134.822216 318.432415,133.84338 317.94101,133.395594 C316.046466,131.669222 313.732796,125.602256 311,115.194697 L301,108.357614 L296,108.357614 L292.979229,98.0107209 L280.729183,94.8711834 C280.396257,86.5862402 281.947626,81.0563947 285.383289,78.2816467 C285.49739,78.1894949 285.61404,78.0983833 285.733239,78.0083117 C281.842539,75.8026062 280.363997,73.355637 281.297613,70.6674041 C282.608073,66.8940976 282.828574,64.3173531 281.959116,62.9371706 C281.766262,62.9544125 281.572301,62.9714938 281.377231,62.9884144 C281.202471,63.0035733 281.028275,63.0188293 280.854643,63.0341822 L328.750999,53.5053342 L329.407454,54.6115847 L336.744434,77.1601974 L339.250403,91.141096 L336.744434,94.5575303 L338.051769,97.1393713 C331.401024,105.390756 332.869238,117.264014 342.456412,132.759147 Z" id="Combined-Shape" fill-opacity="0.5" fill="#FBBA00" mask="url(#mask-2)"></path>
                    <path d="M255.241598,132.12882 L254.51681,130.42401 L255.199448,129.230798 L254.51681,125.676921 L248.760557,125.676921 L248.760557,123.408814 L255.199448,119.623106 L254.51681,99.9916485 L252,98.4046286 L250.336225,99.0045091 L245.887265,99.0045091 L245.887265,96.6674798 L253.458643,96.6674798 C260.1736,95.1327566 267.255802,94.365395 274.705248,94.365395 C276.982433,94.365395 278.997535,94.6948398 280.750553,95.3537293 C280.742729,95.1918554 280.735605,95.0310068 280.729183,94.8711835 L292.979229,98.0107209 L295.878485,107.941397 C290.606907,108.320264 284.581152,112.813082 277.801223,121.419849 C277.765,121.443509 277.728924,121.467008 277.692995,121.490348 C275.470592,122.934045 273.224763,126.478949 270.955507,132.12506 L257.638967,138.933833 L255.300065,132.12506 L255.241598,132.12882 Z" id="Combined-Shape" fill="#FBBA00" mask="url(#mask-2)"></path>
                    <path d="M25.2237602,144.05258 L-5,133.594936 L-5,109 L-3.81734562,109 C0.811133608,112.834642 12.3159677,120.53082 30.6971565,132.088534 L30.897193,132.244805 C30.4439779,135.324803 28.5528337,139.260727 25.2237602,144.05258 Z" id="rozenburg" fill="#FBBA00" mask="url(#mask-2)"></path>
                    <path d="M359.729792,122.865421 C356.687897,123.856337 354.411786,125.195597 352.90146,126.883204 L352.90146,128.405742 L350.342865,129.351385 L350.248625,129.266011 L350.248625,126.168241 L351.587077,123.616525 C350.763719,118.684331 352.686643,115.111065 357.355846,112.896727 C357.416473,112.867975 357.476146,112.839391 357.534866,112.810974 C359.511194,116.48967 360.242836,119.841153 359.729792,122.865421 Z M337.611732,106.617663 L337.581021,106.569405 C337.22595,111.769846 337.884975,116.786528 339.558094,121.619448 C340.801734,127.94418 342.383399,131.693012 344.303088,132.865944 C344.379096,132.912385 344.454427,132.95707 344.529081,133 L342.605719,133 C342.587978,132.971308 342.570172,132.942577 342.5523,132.913809 C332.87909,117.343 331.378913,105.418188 338.051769,97.1393713 L336.744434,94.5575303 L339.250403,91.141096 L336.744434,77.1601974 L329.407454,54.6115847 L326.939421,50.4524789 L329.407454,47.393519 L323.695158,26.7220119 C324.99795,25.2516456 326.256863,23.8730305 327.471897,22.5861666 L350.767227,11.4582856 C354.541614,16.3037399 358.05011,18.1931035 361.292715,17.1263764 L372.434245,12.0050077 L363.803877,-4 L402.608737,-4 L402.608737,4.24270545 L409.607211,12.396041 L398.677977,18.3031239 C393.944579,21.9508462 387.981565,26.5126578 380.788934,31.9885589 C378.659596,33.6096686 375.276532,34.9483516 373.157949,36.0637676 C372.744691,36.2813441 372.35361,36.4963039 371.984705,36.7086469 C370.270502,34.5390184 369.123471,33.4542041 368.54361,33.4542041 C364.133543,33.4542041 366.166331,40.7315418 369.964024,52.2916484 C371.340852,56.4826883 374.205845,59.957855 378.559003,62.7171486 L378.559003,63.8597299 L366.614637,66.9981442 L364.812151,66.2382226 L368.168223,84.5162815 L369.116681,89.6818333 L369.116681,96.9397337 C364.929872,104.51187 354.390825,107.666081 337.49954,106.402366 L337.611231,106.611805 C337.611398,106.613758 337.611565,106.61571 337.611732,106.617663 Z" id="Prins-Alexander" fill-opacity="0.3" fill="#FBBA00" opacity="0.7" mask="url(#mask-2)"></path>
                    <path d="M291.869646,18.8499708 L291.957328,18.9709141 L292.673338,11.6355692 L300,17.558773 C304.755037,20.2683855 307.132555,22.75853 307.132555,25.0292064 C307.132555,27.2998827 310.735373,29.6794142 317.94101,32.1678008 L323.825864,27.1950081 L329.407454,47.393519 L326.939421,50.4524789 L328.750999,53.5053342 L280.854643,63.0341822 C269.78442,64.0130374 261.005142,65.3864051 254.51681,67.1542854 L254.51681,24.2641705 C253.680081,22.3172104 252.432201,20.1313656 250.773171,17.7066363 L252.939473,16.3671614 C252.901645,10.4498264 254.4084,4.99410598 257.459738,-5.66213743e-14 L268.736313,1.20792265e-13 C282.995863,13.2602863 290.671199,19.6569441 291.762318,19.1899736 C291.855505,19.1500919 291.891281,19.0367576 291.869646,18.8499708 Z M252.284214,67.8064374 C252.079931,67.870491 251.878357,67.9350112 251.679494,67.9999981 L251.534378,68 C251.784117,67.9301269 252.034062,67.8656061 252.284214,67.8064374 Z" id="Hillegersberg-&amp;-Schiebroek" fill-opacity="0.3" fill="#FBBA00" mask="url(#mask-2)"></path>
                    <path d="M254.51681,67.4210674 C248.55371,68.0710614 242.706995,71.7327985 236.976666,78.4062788 L221.570762,92.1427807 L221.068819,92.1427807 C215.463118,85.2311381 211.011923,79.5839645 207.715234,75.2012598 C203.76132,69.9448227 201.702845,63.8529456 201.539807,56.9256284 L201.998731,56.4988099 L199.205303,50.286112 L193.51681,53.9068436 L172.593578,53.9068436 L162,24.5184787 L176.51681,21.4377789 L178.678496,25.8391784 L217.553769,1.3500312e-13 L218.51681,0.555615049 L237.823642,27.0022521 L250.498068,17.3077945 C252.294868,19.8922376 253.634449,22.2110296 254.51681,24.2641705 L254.51681,67.4210633 Z M210.226056,43.2330537 L231.456116,30.418723 L224.392798,20.1049542 L216.276464,21.6560302 L202.891323,30.418723 L202.891323,33.2960947 L210.226056,43.2330537 Z" id="Overschie-Copy" fill="#FBBA00" mask="url(#mask-2)"></path>
                    <path d="M105.459345,191.368618 C111.103615,187.685475 119.194933,184.507813 129.7333,181.835633 C139.532826,180.134909 151.769632,179.049285 165.514998,179.708955 C166.83556,184.826888 167.401011,190.257238 167.211349,196 L107.957129,196 C106.687612,194.100761 105.855018,192.556967 105.459345,191.368618 Z" id="Combined-Shape" fill-opacity="0.3" fill="#FBBA00" mask="url(#mask-2)"></path>
                    <path d="M216.636869,126.848909 L216.666999,126.935333 L217.473451,128.45465 L209.249889,135.13609 L211.342578,135.526729 L218.495806,129.524687 L219.516088,131.231031 L214.382989,135.976601 L217.473451,135.976601 L224.45905,129.524687 L225.960893,131.231031 L221.973649,135.976601 L227.405577,135.976601 L229.255412,136.53013 L233.492025,139.368853 L237.517771,139.368853 L246.859348,135.976601 L247.613379,137.592171 L245.140713,141.120066 L250.426929,141.120066 L250.426929,134.672595 L251.651859,134.672595 L253.091212,140.439779 L255.394473,139.368853 L253.983551,133.420713 L255.394473,133.420713 L257.82301,138.87278 C269.745386,132.355844 276.207691,126.314545 277.209925,120.74888 C284.94765,112.13942 291.273271,108.139342 296.186786,108.748647 L299.940468,108.748647 L311.689817,115.594665 L315.054236,122.685196 L315.608103,132.712915 L317.97552,132.712915 C317.59256,140.235406 320.396877,142.775206 326.388472,140.332314 L331.013716,136.782501 L332.43533,137.810383 L338.115564,133.963716 L342.44973,133.963716 L345.629808,132.29102 L347.212736,129.46379 L352.537899,129.46379 L353.798643,128.584781 L359.750845,128.584781 L366.039452,127.745766 L367.139325,129.46379 L362.045247,132.29102 L372.195631,133.963716 L387.337883,138.641842 L394.625931,146.071652 L396.276407,154.054286 L413,157.676807 L413,162.989644 L390.894537,157.348288 L385.4086,146.637686 L377.582292,141.14779 L377.582292,143.856051 L373.831223,143.856051 L369.448248,140.471087 L362.497857,141.14779 L356.866658,137.586547 L356.866658,140.471087 L354.514986,140.471087 L353.464661,137.586547 L345.130195,138.289332 L327.668044,145.011408 L323.76035,146.060922 L316.043912,146.637686 C310.568167,146.014995 306.275084,139.534987 303.164663,127.197662 C303.063044,126.794596 302.963788,126.406626 302.866895,126.033753 L303.210682,125.86061 L308.233556,130.119901 L308.233556,124.413996 L306.271082,120.50891 L301.955515,116.180102 L301.955515,121.415389 L301.53826,121.415389 C300.73533,119.025931 300.225223,118.507304 300.007938,119.859509 L300.007938,115.115279 L296.888504,116.180102 L291.076116,122.717452 L299.205735,130.119901 L297.751948,131.517964 L288.146475,124.413996 L286.385379,125.86061 L292.662868,130.119901 L291.076116,131.517964 L284.811869,127.624464 L276.444459,135.547739 L286.385379,135.547739 L285.531866,138.496691 L269,138.496691 L262.307695,143.429634 L266.525055,147.526167 L286.385379,141.578056 L287.947876,146.8554 L287.551384,146.488917 L265.906385,153.75349 L256.519969,144.53293 L252.328305,145.454006 L251.542483,150.937015 L249.312926,150.937015 L249.312926,146.488917 L247.243716,146.488917 L247.243716,149.27112 L245.134114,149.27112 L245.134114,147.604614 L235.362743,147.604614 L228.572479,143.281367 L225.502631,142.379874 L225.502631,146.488917 L227.215038,149.27112 L237.409308,150.937015 L249.312926,153.75349 L249.312926,156.197863 L235.362743,152.544768 L234.562233,154.945076 L248.175197,159.915831 L247.243716,162.327767 L234.562233,157.672198 L233,160.870568 L245.134114,164.615158 L241.924727,173.908854 L234.562233,172.219703 L238.289381,176.839164 L241.924727,176.839164 L240.405103,180.631185 L223.640893,178.5938 L220.325629,175.5723 L223.640893,173.908854 L222.217967,171.389816 L218.138913,172.219703 L217.315758,169.779003 L225.502631,165.562858 L225.502631,163.555461 L215.585602,168.033547 L214.644329,164.844969 L225.502631,159.915831 L224.268205,157.672198 L212.4264,162.599806 L211.486351,159.915831 L223.640893,153.75349 L219,148.394108 L208.969149,152.544768 L208,150.937015 L220.325629,144.53293 L217.315758,141.423301 L210.041393,141.423301 L211.486351,146.488917 L205.106747,146.488917 L203.380875,143.281367 L198.849544,143.281367 L198,146.488917 L203.380875,154.945076 L198,156.197863 L194.875144,149.27112 L194.875144,145.454006 L183.190015,149.27112 L183.190015,153.75349 L205.106747,160.870568 L205.106747,164.615158 L187.259277,157.672198 L188.824801,162.327767 L213.343193,171.389816 L214.644329,175.5723 L191,166.319915 L192.866523,172.219703 L212.4264,179.759069 L211.486351,183.77631 L197.212415,177.679455 L197.212415,181.443936 L188.824801,177.679455 L175.596792,178.5938 L175.596792,175.5723 L188.824801,173.908854 L188.824801,171.389816 L183.190015,164.844969 L179.291503,164.844969 L179.291503,160.870568 L181.224847,157.672198 L180.189324,154.945076 L168.440545,149.27112 L165.305824,149.27112 L165.305824,152.544768 L158.212003,152.544768 L154.146412,145.454006 L150.515656,145.454006 L147.581368,153.75349 L148.411256,159.915831 L157.50513,162.327767 L158.212003,167.062897 L142.819309,162.327767 L142.466663,164.546664 L142.427831,162.792079 L133.361203,166.914635 L131.820036,164.045309 L142.427831,158.033388 L144.67141,145.541397 L119.354351,152.535526 L123.687658,157.193981 L127,177.645631 L123.687658,177.645631 L122.300873,167.811868 L117.364362,173.514454 L115.105397,171.986019 L120.626013,164.045309 L120.626013,159.007189 L115.699052,154.903112 L98.8570884,157.193981 L102.519815,173.514454 L108.710481,188.91711 L102.519815,190.509738 L95.6240849,164.786299 L92.0722376,164.786299 L84.7611086,158.033388 L81.9732134,175.723086 L87.3176959,191.52728 L81.9732134,193.088077 L79.2988501,180.936462 L76.2870745,180.092401 L72.3256638,180.092401 L62.0282843,183.042636 L59.9098884,179.263825 L77.4897687,173.514454 L79.2988501,162.792079 L67.8215288,166.914635 L67.8215288,167.811868 L60.7284445,170.83 L59.1046403,168.702085 L48.2399514,171.986019 L42.9347218,191.52728 L39.0602356,191.52728 L42.9347218,175.723086 L31.8796405,179.263825 L30.6723284,170.83 L42.9347218,166.914635 L39.0602356,148.555764 L48.2399514,146.543204 L44.0411765,154.903112 L47.5573384,165.881476 L51.3136694,164.045309 L51.3136694,160.524169 L53.920366,160.524169 L52.6368969,152.535526 L57,152.535526 L59.1046403,158.033388 L62.0282843,157.193981 L63.0043256,162.792079 L71.4515904,160.524169 L71.4515904,159.007189 L67.1039229,159.007189 L67.1039229,155.794037 L73.9642107,153.709239 L59.9098884,146.543204 L55.684296,146.543204 L44.0411765,141.144725 L-5.42599319,108.905764 L-18.0376051,97.9947168 L-10.3432773,117.479444 L-7.18651353,133.96093 L-10.3432773,135.598814 L-13.2147968,119.837705 L-18.0376051,110.210257 L-21,112.649368 L-35,112.649368 L-35,63.8022783 L-11.0088822,80.1630782 L3.70439793,103.066566 L43.8461146,130.495796 L46.3399542,129.53876 C51.671901,135.679585 61.4036362,140.147396 75.5351596,142.942192 C76.523146,143.137586 77.3787058,143.157419 78.101839,143.001691 L81.5228857,143.407806 L81.5228857,141.785582 L83.3962948,141.785582 L83.3962948,143.915325 C90.5748766,145.523942 94.8805792,146.32825 96.3134025,146.32825 C96.4507596,146.32825 96.5168666,146.216101 96.5117236,145.991803 L96.5878313,146.054057 L96.5878313,140.197362 L98.9350714,140.197362 L98.9350714,147.067277 L107.736428,147.647951 L117.187181,146.054057 L131.415573,139.501189 L131.415573,135.772285 L127,136.494157 L127,135.386227 L135.993399,131.181754 L136.383499,133.355745 L135.993399,134.355682 L134.132123,135.386227 L134.132123,138.661507 L141.487714,138.661507 L140.274294,126.179843 L142.889133,126.309138 L142.853244,126.438624 L144.997423,134.79947 L144.997423,138.179126 L150.764526,139.064062 L158.00212,135.757023 L158.00212,130.800919 L156.264453,126.970505 L157.411991,127.027247 L160.946076,129.994211 L163.677131,138.179126 L163.677131,142.044656 L169.132641,144.521883 L176.245137,144.521883 L176.245137,138.179126 L168.157594,133.504908 L169.834623,129.945976 L176.669387,133.186684 L178.347819,131.044055 L180.421979,134.512707 L180.421979,143.320491 L195.253264,139.529699 L200.58801,133.186684 L196.014553,123.283696 L198.840524,118.465361 L200.58801,119.785047 L198.840524,122.93156 L199.478646,123.883314 L203.189893,118.465361 L204.725468,119.785047 L200.58801,125.652549 L202.231887,127.702834 L208,119.785047 L209.775818,121.97487 L202.231887,134.139019 L202.231887,135.612394 L206.513461,135.612394 L216.636869,127.202933 L216.636869,126.848909 Z" id="WATER" fill="#D4ECFF" mask="url(#mask-2)"></path>
                </g>
                <rect id="Rectangle" fill="#FBBA00" x="11" y="12" width="11" height="11"></rect>
                <rect id="Rectangle-Copy-15" fill="#FBBA00" opacity="0.5" x="11" y="30" width="11" height="11"></rect>
                <rect id="Rectangle-Copy-17" fill="#FBBA00" opacity="0.3" x="11" y="48" width="11" height="11"></rect>
                <path d="" id="Path-5" stroke="#979797"></path>
                <text id="Overschie" font-family="MuseoSans-500, Museo Sans" font-size="9" font-weight="normal" fill="#10515A">
                    <tspan x="208" y="44">Overschie</tspan>
                </text>
                <text id="Hillegersberg-&amp;-Schi" font-family="MuseoSans-500, Museo Sans" font-size="9" font-weight="normal" fill="#10515A">
                    <tspan x="260.172" y="31">Hillegersberg </tspan>
                    <tspan x="260.469" y="41">&amp; Schiebroek</tspan>
                </text>
                <text id="Noord" font-family="MuseoSans-500, Museo Sans" font-size="8" font-weight="normal" fill="#10515A">
                    <tspan x="244" y="72">Noord</tspan>
                </text>
                <text id="Centrum" font-family="MuseoSans-500, Museo Sans" font-size="8" font-weight="normal" fill="#10515A">
                    <tspan x="258" y="91">Centrum</tspan>
                </text>
                <text id="Delfshaven" font-family="MuseoSans-500, Museo Sans" font-size="8" font-weight="normal" fill="#10515A">
                    <tspan x="208" y="104">Delfshaven</tspan>
                </text>
                <text id="Charlois" font-family="MuseoSans-500, Museo Sans" font-size="8" font-weight="normal" fill="#10515A">
                    <tspan x="257" y="167">Charlois</tspan>
                </text>
                <text id="Feijenoord" font-family="MuseoSans-500, Museo Sans" font-size="8" font-weight="normal" fill="#10515A">
                    <tspan x="293" y="135">Feijenoord</tspan>
                </text>
                <text id="Pernis" font-family="MuseoSans-500, Museo Sans" font-size="8" font-weight="normal" fill="#10515A">
                    <tspan x="161" y="155">Pernis</tspan>
                </text>
                <text id="Ijsselmonde" font-family="MuseoSans-500, Museo Sans" font-size="8" font-weight="normal" fill="#10515A">
                    <tspan x="327" y="148">Ijsselmonde</tspan>
                </text>
                <text id="Prins-Alexander" font-family="MuseoSans-500, Museo Sans" font-size="9" font-weight="normal" fill="#10515A">
                    <tspan x="345.731" y="41">Prins </tspan>
                    <tspan x="335.219" y="51">Alexander</tspan>
                </text>
                <text id="Kralingen-Crooswijk" font-family="MuseoSans-500, Museo Sans" font-size="9" font-weight="normal" fill="#10515A">
                    <tspan x="290.227" y="70">Kralingen </tspan>
                    <tspan x="289.1785" y="80">Crooswijk</tspan>
                </text>
                <text id="Rozenburg" font-family="MuseoSans-500, Museo Sans" font-size="8" font-weight="normal" fill="#10515A">
                    <tspan x="6" y="116">Rozenburg</tspan>
                </text>
                <text id="extreem-vervuild-ver" font-family="MuseoSans-500, Museo Sans" font-size="8" font-weight="normal" line-spacing="9" fill="#10515A">
                    <tspan x="27" y="21">extreem vervuild</tspan>
                    <tspan x="27.968" y="30.136"></tspan>
                    <tspan x="27" y="39">vervuild</tspan>
                    <tspan x="27.968" y="48.136"></tspan>
                    <tspan x="27" y="57">schoon</tspan>
                </text>
            </g>
        </g>
    </g>
</svg>