<?xml version="1.0" encoding="UTF-8"?>
<svg width="100px" height="100px" viewBox="0 0 100 100" version="1.1" xmlns="http://www.w3.org/2000/svg" xmlns:xlink="http://www.w3.org/1999/xlink">
    <!-- Generator: Sketch 52.6 (67491) - http://www.bohemiancoding.com/sketch -->
    <title>satellite (1)</title>
    <desc>Created with Sketch.</desc>
    <g id="Page-1" stroke="none" stroke-width="1" fill="none" fill-rule="evenodd">
        <g id="satellite-(1)" fill="#FFFFFF">
            <path d="M56.958,38.875 L51.564,33.482 L69.286,15.761 L54.173,0.651 L36.453,18.372 L30.675,12.595 L12.635,30.634 L18.412,36.411 L0.692,54.131 L15.804,69.241 L33.524,51.521 L38.918,56.915 L45.816,50.017 L56.084,60.286 L60.326,56.044 L50.058,45.774 L56.958,38.875 Z M54.173,9.136 L60.799,15.761 L47.321,29.239 L40.695,22.614 L54.173,9.136 Z M15.804,60.757 L9.178,54.131 L22.656,40.654 L29.282,47.279 L15.804,60.757 Z M21.121,30.634 L30.675,21.08 L48.471,38.875 L38.917,48.43 L21.121,30.634 Z" id="Shape" fill-rule="nonzero"></path>
            <path d="M69.895,69.856 C72.44,67.312 73.819,63.914 73.779,60.284 L67.779,60.35 C67.801,62.351 67.047,64.22 65.653,65.613 C64.261,67.005 62.378,67.799 60.395,67.735 L60.327,73.735 C60.38,73.735 60.432,73.736 60.486,73.736 C64.052,73.736 67.389,72.362 69.895,69.856 Z" id="Path"></path>
            <path d="M79.284,79.242 C84.279,74.248 86.986,67.567 86.906,60.432 L80.906,60.499 C80.968,66.006 78.885,71.155 75.042,74.999 C71.254,78.787 66.196,80.865 60.779,80.865 C60.7,80.865 60.621,80.864 60.541,80.863 L60.475,86.863 C60.578,86.864 60.679,86.865 60.782,86.865 C67.8,86.865 74.361,84.165 79.284,79.242 Z" id="Path"></path>
            <path d="M93.388,60.641 C93.488,69.483 90.141,77.753 83.966,83.928 C77.79,90.103 69.528,93.488 60.68,93.347 L60.612,99.347 C60.765,99.349 60.917,99.349 61.069,99.349 C71.366,99.349 80.989,95.39 88.209,88.17 C95.536,80.844 99.506,71.043 99.389,60.573 L93.388,60.641 Z" id="Path"></path>
        </g>
    </g>
</svg>