<?xml version="1.0" encoding="UTF-8"?>
<svg width="428px" height="512px" viewBox="0 0 428 512" version="1.1" xmlns="http://www.w3.org/2000/svg" xmlns:xlink="http://www.w3.org/1999/xlink">
    <!-- Generator: Sketch 52.6 (67491) - http://www.bohemiancoding.com/sketch -->
    <title>user-2</title>
    <desc>Created with Sketch.</desc>
    <g id="Page-1" stroke="none" stroke-width="1" fill="none" fill-rule="evenodd">
        <g id="user-2" fill="#FFFFFF" fill-rule="nonzero">
            <path d="M210.351562,246.632812 C244.234375,246.632812 273.570312,234.480469 297.546875,210.503906 C321.515625,186.53125 333.671875,157.199219 333.671875,123.3125 C333.671875,89.4375 321.519531,60.101562 297.542969,36.121094 C273.566406,12.152344 244.230469,0 210.351562,0 C176.464844,0 147.132812,12.152344 123.160156,36.125 C99.1875,60.097656 87.03125,89.433594 87.03125,123.3125 C87.03125,157.199219 99.1875,186.535156 123.160156,210.507812 C147.140625,234.476562 176.476562,246.632812 210.351562,246.632812 Z M144.378906,57.339844 C162.773438,38.945312 184.351562,30.003906 210.351562,30.003906 C236.347656,30.003906 257.929688,38.945312 276.328125,57.339844 C294.722656,75.738281 303.667969,97.320312 303.667969,123.3125 C303.667969,149.3125 294.722656,170.890625 276.328125,189.289062 C257.929688,207.6875 236.347656,216.628906 210.351562,216.628906 C184.359375,216.628906 162.78125,207.683594 144.378906,189.289062 C125.980469,170.894531 117.035156,149.3125 117.035156,123.3125 C117.035156,97.320312 125.980469,75.738281 144.378906,57.339844 Z" id="Shape"></path>
            <path d="M426.128906,393.703125 C425.4375,383.726562 424.039062,372.84375 421.980469,361.351562 C419.902344,349.773438 417.226562,338.828125 414.023438,328.824219 C410.710938,318.484375 406.214844,308.273438 400.648438,298.488281 C394.878906,288.332031 388.097656,279.488281 380.488281,272.210938 C372.53125,264.597656 362.789062,258.476562 351.523438,254.011719 C340.296875,249.570312 327.855469,247.320312 314.546875,247.320312 C309.320312,247.320312 304.265625,249.464844 294.503906,255.820312 C288.496094,259.738281 281.46875,264.269531 273.625,269.28125 C266.917969,273.554688 257.832031,277.558594 246.609375,281.183594 C235.660156,284.726562 224.542969,286.523438 213.566406,286.523438 C202.597656,286.523438 191.480469,284.726562 180.523438,281.183594 C169.3125,277.5625 160.222656,273.558594 153.527344,269.285156 C145.757812,264.320312 138.726562,259.789062 132.628906,255.816406 C122.875,249.460938 117.820312,247.316406 112.59375,247.316406 C99.28125,247.316406 86.84375,249.570312 75.621094,254.015625 C64.363281,258.472656 54.617188,264.59375 46.652344,272.214844 C39.042969,279.496094 32.261719,288.335938 26.496094,298.488281 C20.9375,308.273438 16.4375,318.480469 13.125,328.828125 C9.925781,338.832031 7.25,349.773438 5.171875,361.351562 C3.109375,372.828125 1.714844,383.714844 1.023438,393.714844 C0.34375,403.492188 0,413.667969 0,423.949219 C0,450.675781 8.496094,472.3125 25.25,488.269531 C41.796875,504.015625 63.6875,512 90.316406,512 L336.847656,512 C363.46875,512 385.359375,504.015625 401.910156,488.269531 C418.667969,472.324219 427.164062,450.679688 427.164062,423.945312 C427.160156,413.628906 426.8125,403.453125 426.128906,393.703125 Z M381.222656,466.53125 C370.289062,476.9375 355.773438,481.996094 336.84375,481.996094 L90.316406,481.996094 C71.382812,481.996094 56.867188,476.9375 45.9375,466.535156 C35.214844,456.328125 30.003906,442.394531 30.003906,423.949219 C30.003906,414.355469 30.320312,404.882812 30.953125,395.789062 C31.570312,386.867188 32.832031,377.066406 34.703125,366.652344 C36.550781,356.367188 38.902344,346.714844 41.699219,337.976562 C44.382812,329.597656 48.042969,321.300781 52.582031,313.308594 C56.914062,305.691406 61.898438,299.15625 67.398438,293.890625 C72.542969,288.964844 79.027344,284.933594 86.667969,281.910156 C93.734375,279.113281 101.675781,277.582031 110.296875,277.351562 C111.347656,277.910156 113.21875,278.976562 116.25,280.953125 C122.417969,284.972656 129.527344,289.558594 137.386719,294.578125 C146.246094,300.226562 157.660156,305.328125 171.296875,309.730469 C185.238281,314.238281 199.457031,316.527344 213.570312,316.527344 C227.683594,316.527344 241.90625,314.238281 255.839844,309.734375 C269.488281,305.324219 280.898438,300.226562 289.769531,294.570312 C297.8125,289.429688 304.722656,284.976562 310.890625,280.953125 C313.921875,278.980469 315.792969,277.910156 316.84375,277.351562 C325.46875,277.582031 333.410156,279.113281 340.480469,281.910156 C348.117188,284.933594 354.601562,288.96875 359.746094,293.890625 C365.246094,299.152344 370.230469,305.6875 374.5625,313.3125 C379.105469,321.300781 382.769531,329.601562 385.449219,337.972656 C388.25,346.722656 390.605469,356.371094 392.449219,366.648438 C394.316406,377.082031 395.582031,386.886719 396.199219,395.792969 L396.199219,395.800781 C396.835938,404.859375 397.15625,414.328125 397.160156,423.949219 C397.15625,442.398438 391.945312,456.328125 381.222656,466.53125 Z" id="Shape"></path>
        </g>
    </g>
</svg>